{
    "asset" : {
        "copyright" : "domkia",
        "generator" : "Khronos glTF Blender I/O v1.0.5",
        "version" : "2.0"
    },
    "scene" : 0,
    "scenes" : [
        {
            "name" : "Scene",
            "nodes" : [
                1
            ]
        }
    ],
    "nodes" : [
        {
            "mesh" : 0,
            "name" : "Propeller"
        },
        {
            "children" : [
                0
            ],
            "mesh" : 1,
            "name" : "F4U_Corsair"
        }
    ],
    "meshes" : [
        {
            "name" : "Circle",
            "primitives" : [
                {
                    "attributes" : {
                        "POSITION" : 0,
                        "NORMAL" : 1,
                        "TEXCOORD_0" : 2
                    },
                    "indices" : 3
                }
            ]
        },
        {
            "extras" : {
                "targetNames" : [
                    "rudder",
                    "elevator",
                    "flaps"
                ]
            },
            "name" : "f4u_corsair_mesh",
            "primitives" : [
                {
                    "attributes" : {
                        "POSITION" : 4,
                        "NORMAL" : 5,
                        "TEXCOORD_0" : 6
                    },
                    "indices" : 7,
                    "targets" : [
                        {
                            "POSITION" : 8,
                            "NORMAL" : 9
                        },
                        {
                            "POSITION" : 10,
                            "NORMAL" : 11
                        },
                        {
                            "POSITION" : 12,
                            "NORMAL" : 13
                        }
                    ]
                }
            ],
            "weights" : [
                0,
                0,
                0
            ]
        }
    ],
    "accessors" : [
        {
            "bufferView" : 0,
            "componentType" : 5126,
            "count" : 25,
            "max" : [
                0.9034605622291565,
                0.8608174920082092,
                2.304405927658081
            ],
            "min" : [
                -0.9034608006477356,
                -0.9461039304733276,
                2.304405689239502
            ],
            "type" : "VEC3"
        },
        {
            "bufferView" : 1,
            "componentType" : 5126,
            "count" : 25,
            "type" : "VEC3"
        },
        {
            "bufferView" : 2,
            "componentType" : 5126,
            "count" : 25,
            "type" : "VEC2"
        },
        {
            "bufferView" : 3,
            "componentType" : 5123,
            "count" : 72,
            "type" : "SCALAR"
        },
        {
            "bufferView" : 4,
            "componentType" : 5126,
            "count" : 671,
            "max" : [
                2.724931240081787,
                0.9531141519546509,
                2.484876871109009
            ],
            "min" : [
                -2.724931240081787,
                -0.5091305375099182,
                -1.9924768209457397
            ],
            "type" : "VEC3"
        },
        {
            "bufferView" : 5,
            "componentType" : 5126,
            "count" : 671,
            "type" : "VEC3"
        },
        {
            "bufferView" : 6,
            "componentType" : 5126,
            "count" : 671,
            "type" : "VEC2"
        },
        {
            "bufferView" : 7,
            "componentType" : 5123,
            "count" : 2784,
            "type" : "SCALAR"
        },
        {
            "bufferView" : 8,
            "componentType" : 5126,
            "count" : 671,
            "max" : [
                0.19400054216384888,
                0,
                0.053536295890808105
            ],
            "min" : [
                -0.005201864987611771,
                -2.9802322387695312e-08,
                -0.019413471221923828
            ],
            "type" : "VEC3"
        },
        {
            "bufferView" : 9,
            "componentType" : 5126,
            "count" : 671,
            "type" : "VEC3"
        },
        {
            "bufferView" : 10,
            "componentType" : 5126,
            "count" : 671,
            "max" : [
                5.960464477539063e-08,
                0.005258649587631226,
                0.043122291564941406
            ],
            "min" : [
                -5.960464477539063e-08,
                -0.11619116365909576,
                -0.0019083023071289062
            ],
            "type" : "VEC3"
        },
        {
            "bufferView" : 11,
            "componentType" : 5126,
            "count" : 671,
            "type" : "VEC3"
        },
        {
            "bufferView" : 12,
            "componentType" : 5126,
            "count" : 671,
            "max" : [
                0.020928502082824707,
                0.10314801335334778,
                0.05630633234977722
            ],
            "min" : [
                0,
                -0.11771708726882935,
                -0.058872759342193604
            ],
            "type" : "VEC3"
        },
        {
            "bufferView" : 13,
            "componentType" : 5126,
            "count" : 671,
            "type" : "VEC3"
        }
    ],
    "bufferViews" : [
        {
            "buffer" : 0,
            "byteLength" : 300,
            "byteOffset" : 0
        },
        {
            "buffer" : 0,
            "byteLength" : 300,
            "byteOffset" : 300
        },
        {
            "buffer" : 0,
            "byteLength" : 200,
            "byteOffset" : 600
        },
        {
            "buffer" : 0,
            "byteLength" : 144,
            "byteOffset" : 800
        },
        {
            "buffer" : 0,
            "byteLength" : 8052,
            "byteOffset" : 944
        },
        {
            "buffer" : 0,
            "byteLength" : 8052,
            "byteOffset" : 8996
        },
        {
            "buffer" : 0,
            "byteLength" : 5368,
            "byteOffset" : 17048
        },
        {
            "buffer" : 0,
            "byteLength" : 5568,
            "byteOffset" : 22416
        },
        {
            "buffer" : 0,
            "byteLength" : 8052,
            "byteOffset" : 27984
        },
        {
            "buffer" : 0,
            "byteLength" : 8052,
            "byteOffset" : 36036
        },
        {
            "buffer" : 0,
            "byteLength" : 8052,
            "byteOffset" : 44088
        },
        {
            "buffer" : 0,
            "byteLength" : 8052,
            "byteOffset" : 52140
        },
        {
            "buffer" : 0,
            "byteLength" : 8052,
            "byteOffset" : 60192
        },
        {
            "buffer" : 0,
            "byteLength" : 8052,
            "byteOffset" : 68244
        }
    ],
    "buffers" : [
        {
            "byteLength" : 76296,
            "uri" : "data:application/octet-stream;base64,"
        }
    ]
}
